<mxfile host="app.diagrams.net" modified="2021-01-19T10:31:24.869Z" agent="5.0 (Macintosh; Intel Mac OS X 10_15_6) AppleWebKit/537.36 (KHTML, like Gecko) Chrome/87.0.4280.141 Safari/537.36" etag="uNSBjrgsEDtpSC4A5uQq" version="14.1.3" type="github">
  <diagram id="pBgmhtFyX_WPpMTLfvvG" name="Page-1">
    <mxGraphModel dx="1036" dy="661" grid="1" gridSize="10" guides="1" tooltips="1" connect="1" arrows="1" fold="1" page="1" pageScale="1" pageWidth="1920" pageHeight="1200" math="0" shadow="0">
      <root>
        <mxCell id="0" />
        <mxCell id="1" parent="0" />
        <mxCell id="ZCPLQkThrctgt06H_Gng-33" value="" style="rounded=0;whiteSpace=wrap;html=1;" parent="1" vertex="1">
          <mxGeometry x="720" y="195" width="240" height="215" as="geometry" />
        </mxCell>
        <mxCell id="ZCPLQkThrctgt06H_Gng-32" style="edgeStyle=orthogonalEdgeStyle;rounded=0;sketch=0;orthogonalLoop=1;jettySize=auto;html=1;entryX=0.5;entryY=0;entryDx=0;entryDy=0;endArrow=none;endFill=0;" parent="1" source="ZCPLQkThrctgt06H_Gng-31" target="ZCPLQkThrctgt06H_Gng-20" edge="1">
          <mxGeometry relative="1" as="geometry" />
        </mxCell>
        <mxCell id="ZCPLQkThrctgt06H_Gng-31" value="" style="rounded=0;whiteSpace=wrap;html=1;" parent="1" vertex="1">
          <mxGeometry x="720" y="50" width="240" height="120" as="geometry" />
        </mxCell>
        <mxCell id="ZCPLQkThrctgt06H_Gng-11" style="edgeStyle=orthogonalEdgeStyle;rounded=0;sketch=0;orthogonalLoop=1;jettySize=auto;html=1;entryX=0;entryY=0.5;entryDx=0;entryDy=0;endArrow=none;endFill=0;" parent="1" source="ZCPLQkThrctgt06H_Gng-1" target="ZCPLQkThrctgt06H_Gng-4" edge="1">
          <mxGeometry relative="1" as="geometry" />
        </mxCell>
        <mxCell id="ZCPLQkThrctgt06H_Gng-12" style="edgeStyle=orthogonalEdgeStyle;rounded=0;sketch=0;orthogonalLoop=1;jettySize=auto;html=1;entryX=0;entryY=0.5;entryDx=0;entryDy=0;endArrow=none;endFill=0;" parent="1" source="ZCPLQkThrctgt06H_Gng-1" target="ZCPLQkThrctgt06H_Gng-5" edge="1">
          <mxGeometry relative="1" as="geometry" />
        </mxCell>
        <mxCell id="ZCPLQkThrctgt06H_Gng-1" value="渲染容器" style="rounded=0;whiteSpace=wrap;html=1;" parent="1" vertex="1">
          <mxGeometry x="40" y="170" width="70" height="40" as="geometry" />
        </mxCell>
        <mxCell id="ZCPLQkThrctgt06H_Gng-4" value="模版" style="rounded=0;whiteSpace=wrap;html=1;" parent="1" vertex="1">
          <mxGeometry x="200" y="80" width="60" height="30" as="geometry" />
        </mxCell>
        <mxCell id="ZCPLQkThrctgt06H_Gng-28" style="edgeStyle=orthogonalEdgeStyle;rounded=0;sketch=0;orthogonalLoop=1;jettySize=auto;html=1;entryX=0;entryY=0.5;entryDx=0;entryDy=0;endArrow=none;endFill=0;" parent="1" source="ZCPLQkThrctgt06H_Gng-5" target="ZCPLQkThrctgt06H_Gng-15" edge="1">
          <mxGeometry relative="1" as="geometry" />
        </mxCell>
        <mxCell id="ZCPLQkThrctgt06H_Gng-29" style="edgeStyle=orthogonalEdgeStyle;rounded=0;sketch=0;orthogonalLoop=1;jettySize=auto;html=1;entryX=0;entryY=0.5;entryDx=0;entryDy=0;endArrow=none;endFill=0;" parent="1" source="ZCPLQkThrctgt06H_Gng-5" target="ZCPLQkThrctgt06H_Gng-18" edge="1">
          <mxGeometry relative="1" as="geometry" />
        </mxCell>
        <mxCell id="ZCPLQkThrctgt06H_Gng-30" style="edgeStyle=orthogonalEdgeStyle;rounded=0;sketch=0;orthogonalLoop=1;jettySize=auto;html=1;entryX=0;entryY=0.5;entryDx=0;entryDy=0;endArrow=none;endFill=0;" parent="1" source="ZCPLQkThrctgt06H_Gng-5" target="ZCPLQkThrctgt06H_Gng-13" edge="1">
          <mxGeometry relative="1" as="geometry" />
        </mxCell>
        <mxCell id="ZCPLQkThrctgt06H_Gng-5" value="逻辑" style="rounded=0;whiteSpace=wrap;html=1;" parent="1" vertex="1">
          <mxGeometry x="200" y="250" width="70" height="30" as="geometry" />
        </mxCell>
        <mxCell id="ZCPLQkThrctgt06H_Gng-19" style="edgeStyle=orthogonalEdgeStyle;rounded=0;sketch=0;orthogonalLoop=1;jettySize=auto;html=1;endArrow=none;endFill=0;entryX=0;entryY=0.5;entryDx=0;entryDy=0;startArrow=block;startFill=1;" parent="1" target="ZCPLQkThrctgt06H_Gng-20" edge="1">
          <mxGeometry relative="1" as="geometry">
            <mxPoint x="540" y="325" as="targetPoint" />
            <mxPoint x="490" y="325" as="sourcePoint" />
          </mxGeometry>
        </mxCell>
        <mxCell id="ZCPLQkThrctgt06H_Gng-36" value="" style="edgeStyle=orthogonalEdgeStyle;rounded=0;sketch=0;orthogonalLoop=1;jettySize=auto;html=1;startArrow=none;startFill=0;endArrow=none;endFill=0;" parent="1" source="ZCPLQkThrctgt06H_Gng-13" target="ZCPLQkThrctgt06H_Gng-35" edge="1">
          <mxGeometry relative="1" as="geometry" />
        </mxCell>
        <mxCell id="ZCPLQkThrctgt06H_Gng-13" value="配置" style="rounded=0;whiteSpace=wrap;html=1;" parent="1" vertex="1">
          <mxGeometry x="320" y="310" width="70" height="30" as="geometry" />
        </mxCell>
        <mxCell id="ZCPLQkThrctgt06H_Gng-15" value="组件依赖" style="rounded=0;whiteSpace=wrap;html=1;" parent="1" vertex="1">
          <mxGeometry x="320" y="200" width="70" height="30" as="geometry" />
        </mxCell>
        <mxCell id="ZCPLQkThrctgt06H_Gng-18" value="数据" style="rounded=0;whiteSpace=wrap;html=1;" parent="1" vertex="1">
          <mxGeometry x="320" y="260" width="70" height="30" as="geometry" />
        </mxCell>
        <mxCell id="ZCPLQkThrctgt06H_Gng-20" value="配置关系" style="rounded=0;whiteSpace=wrap;html=1;" parent="1" vertex="1">
          <mxGeometry x="547" y="310" width="70" height="30" as="geometry" />
        </mxCell>
        <mxCell id="ZCPLQkThrctgt06H_Gng-21" value="配置生成" style="whiteSpace=wrap;html=1;rounded=0;" parent="1" vertex="1">
          <mxGeometry x="750" y="217.5" width="60" height="32.5" as="geometry" />
        </mxCell>
        <mxCell id="ZCPLQkThrctgt06H_Gng-23" value="&lt;font style=&quot;font-size: 10px&quot;&gt;元数据、上下文、依赖的关系&lt;/font&gt;" style="text;html=1;align=center;verticalAlign=middle;resizable=0;points=[];autosize=1;" parent="1" vertex="1">
          <mxGeometry x="547" y="340" width="170" height="20" as="geometry" />
        </mxCell>
        <mxCell id="ZCPLQkThrctgt06H_Gng-24" value="元数据" style="rounded=0;whiteSpace=wrap;html=1;" parent="1" vertex="1">
          <mxGeometry x="750" y="70" width="70" height="30" as="geometry" />
        </mxCell>
        <mxCell id="ZCPLQkThrctgt06H_Gng-25" value="校验规则" style="rounded=0;whiteSpace=wrap;html=1;" parent="1" vertex="1">
          <mxGeometry x="870" y="70" width="70" height="30" as="geometry" />
        </mxCell>
        <mxCell id="ZCPLQkThrctgt06H_Gng-26" value="显隐规则" style="rounded=0;whiteSpace=wrap;html=1;" parent="1" vertex="1">
          <mxGeometry x="750" y="120" width="70" height="30" as="geometry" />
        </mxCell>
        <mxCell id="ZCPLQkThrctgt06H_Gng-27" value="" style="edgeStyle=orthogonalEdgeStyle;rounded=0;sketch=0;orthogonalLoop=1;jettySize=auto;html=1;endArrow=none;endFill=0;startArrow=block;startFill=1;entryX=-0.005;entryY=0.606;entryDx=0;entryDy=0;entryPerimeter=0;" parent="1" source="ZCPLQkThrctgt06H_Gng-20" target="ZCPLQkThrctgt06H_Gng-33" edge="1">
          <mxGeometry relative="1" as="geometry">
            <mxPoint x="617" y="325" as="sourcePoint" />
            <mxPoint x="717" y="325" as="targetPoint" />
          </mxGeometry>
        </mxCell>
        <mxCell id="ZCPLQkThrctgt06H_Gng-34" value="工具" style="text;html=1;strokeColor=none;fillColor=none;align=center;verticalAlign=middle;whiteSpace=wrap;rounded=0;" parent="1" vertex="1">
          <mxGeometry x="830" y="200" width="40" height="20" as="geometry" />
        </mxCell>
        <mxCell id="ZCPLQkThrctgt06H_Gng-35" value="form配置" style="rounded=0;whiteSpace=wrap;html=1;" parent="1" vertex="1">
          <mxGeometry x="420" y="310" width="70" height="30" as="geometry" />
        </mxCell>
        <mxCell id="ZCPLQkThrctgt06H_Gng-37" value="&lt;font style=&quot;font-size: 10px&quot;&gt;融合：元数据、上下文、依赖&lt;br&gt;解析：元数据表达式&lt;br&gt;&lt;/font&gt;" style="text;html=1;align=left;verticalAlign=middle;resizable=0;points=[];autosize=1;" parent="1" vertex="1">
          <mxGeometry x="750" y="255" width="170" height="30" as="geometry" />
        </mxCell>
      </root>
    </mxGraphModel>
  </diagram>
</mxfile>
